# AST/ASF file generated using VICON BodyLanguage
# -----------------------------------------------
:version 1.10
:name VICON
:units
  mass 1.0
  length 0.45
  angle deg
:documentation
   .ast/.asf automatically generated from VICON data using
   VICON BodyBuilder and BodyLanguage model FoxedUp or BRILLIANT.MOD
:root
   order TX TY TZ RX RY RZ
   axis XYZ
   position 0 0 0  
   orientation 0 0 0 
:bonedata
  begin
     id 1 
     name lhipjoint
     direction 0.567149 -0.783011 0.255413 
     length 2.28399 
     axis 0 0 0  XYZ
  end
  begin
     id 2 
     name lfemur
     direction 0.34202 -0.939693 0  
     length 7.34031  
     axis 0 0 20  XYZ
    dof rx ry rz
    limits (-160.0 20.0)
           (-70.0 70.0)
           (-60.0 70.0)
  end
  begin
     id 3 
     name ltibia
     direction 0.34202 -0.939693 0   
     length 6.9833   
     axis 0 0 20   XYZ
    dof rx
    limits (-10.0 170.0)
  end
  begin
     id 4 
     name lfoot
     direction 0.136498 -0.375025 0.91691   
     length 2.33665   
     axis -90 7.62852e-016 20   XYZ
    dof rx rz
    limits (-45.0 90.0)
           (-70.0 20.0)
  end
  begin
     id 5 
     name ltoes
     direction 1.5367e-011 -4.21617e-011 1   
     length 1.15039   
     axis -90 7.62852e-016 20   XYZ
    dof rx
    limits (-90.0 20.0)
  end
  begin
     id 6 
     name rhipjoint
     direction -0.602854 -0.758518 0.247423   
     length 2.35775  
     axis 0 0 0  XYZ 
  end
  begin
     id 7 
     name rfemur
     direction -0.34202 -0.939693 0   
     length 7.43932   
     axis 0 0 -20   XYZ
    dof rx ry rz
    limits (-160.0 20.0)
           (-70.0 70.0)
           (-70.0 60.0)
  end
  begin
     id 8 
     name rtibia
     direction -0.34202 -0.939693 0   
     length 7.11893   
     axis 0 0 -20   XYZ
    dof rx
    limits (-10.0 170.0)
 end
 begin
     id 9 
     name rfoot
     direction -0.131771 -0.362037 0.922803   
     length 2.53019  
     axis -90 -7.62852e-016 -20   XYZ
    dof rx rz
    limits (-45.0 90.0)
           (-20.0 70.0)
  end
  begin
     id 10 
     name rtoes
     direction -1.53733e-011 -4.21932e-011 1   
     length 1.24596   
     axis -90 -7.62852e-016 -20   XYZ
    dof rx
    limits (-90.0 20.0)
  end
  begin
     id 11 
     name lowerback
     direction 0.0235427 0.999023 -0.0374125   
     length 2.21768   
     axis 0 0 0   XYZ
    dof rx ry rz
    limits (-20.0 45.0)
           (-30.0 30.0)
           (-30.0 30.0)
  end
  begin
     id 12 
     name upperback
     direction 0.0302156 0.996818 -0.073759   
     length 2.20352   
     axis 0 0 0   XYZ
    dof rx ry rz
    limits (-20.0 45.0)
           (-30.0 30.0)
           (-30.0 30.0)
  end
  begin
     id 13 
     name thorax
     direction 0.0187169 0.998235 -0.0563532   
     length 2.22103   
     axis 0 0 0   XYZ
    dof rx ry rz
    limits (-20.0 45.0)
           (-30.0 30.0)
           (-30.0 30.0)
  end
  begin
     id 14 
     name lowerneck
     direction -0.119528 0.987423 0.103481   
     length 1.72948   
     axis 0 0 0   XYZ
    dof rx ry rz
    limits (-20.0 45.0)
           (-30.0 30.0)
           (-30.0 30.0)
  end
  begin
     id 15 
     name upperneck
     direction 0.248049 0.963095 -0.104496   
     length 1.74979   
     axis 0 0 0   XYZ
    dof rx ry rz
    limits (-20.0 45.0)
           (-30.0 30.0)
           (-30.0 30.0)
  end
  begin
     id 16
     name head
     direction 0.0903589 0.994284 -0.056876  
     length 1.78268  
     axis 0 0 0   XYZ
    dof rx ry rz
    limits (-20.0 45.0)
           (-30.0 30.0)
           (-30.0 30.0)
  end
  begin
     id 17 
     name lclavicle
     direction 0.946008 0.242039 -0.215608  
     length 3.80783  
     axis 0 0 0   XYZ
    dof ry rz
    limits (-20.0 10.0)
           (0.0 20.0)
  end
  begin
     id 18 
     name lhumerus
     direction 1 -4.48991e-011 -2.25695e-027   
     length 4.83125   
     axis 180 -30 -90   XYZ
    dof rx ry rz
    limits (-60.0 90.0)
           (-90.0 90.0)
           (-90.0 90.0)
  end
  begin
     id 19
     name lradius
     direction 0.999991 0.00366712 -0.00211721   
     length 3.00391   
     axis 180 -30 -90   XYZ
    dof rx
    limits (-10.0 170.0)
  end
  begin
     id 20
     name lwrist
     direction 0.999991 0.00393016 -0.00141978   
     length 1.50195   
     axis -1.00488e-014 90 90   XYZ
    dof ry
    limits (-180.0 0.0)
 end
  begin
     id 21 
     name lhand
     direction 1 -4.49123e-011 2.72098e-026   
     length 1.2717   
     axis -1.73687e-014 90 90   XYZ
    dof rx rz
    limits (-90.0 90.0)
           (-45.0 45.0)
  end
  begin
     id 22 
     name lfingers
     direction 1 -4.48678e-011 5.4479e-026   
     length 1.02528   
     axis -3.47372e-014 90 90   XYZ
    dof rx
    limits (0.0 90.0)
  end
  begin
     id 23
     name lthumb
     direction 0.707107 -6.34851e-011 0.707107   
     length 1.4721   
     axis -90 45 -1.62303e-014   XYZ
    dof rx rz
    limits (-45.0 45.0)
           (-45.0 45.0)
  end
  begin
     id 24 
     name rclavicle
     direction -0.981723 0.189447 -0.0181673   
     length 3.74989  
     axis 0 0 0   XYZ 
    dof ry rz
    limits (-10.0 20.0)
           (-20.0 0.0)
  end
  begin
     id 25 
     name rhumerus
     direction -1 -4.48985e-011 2.38206e-027  
     length 4.61118   
     axis 180 30 90   XYZ
    dof rx ry rz
    limits (-90.0 60.0)
           (-90.0 90.0)
           (-90.0 90.0)
  end
  begin
     id 26 
     name rradius
     direction -1 -4.48977e-011 7.41019e-027   
     length 2.91491   
     axis 180 30 90   XYZ
    dof rx
    limits (-10.0 170.0)
  end
  begin
     id 27 
     name rwrist
     direction -1 -4.48549e-011 1.3624e-026   
     length 1.45745   
     axis -1.00488e-014 -90 -90   XYZ
    dof ry
    limits (-180.0 0.0)
  end
  begin
     id 28
     name rhand
     direction -1 -4.49107e-011 2.72109e-026   
     length 1.30769   
     axis -1.73687e-014 -90 -90   XYZ
    dof rx rz
    limits (-90.0 90.0)
           (-45.0 45.0)
  end
  begin
     id 29
     name rfingers
     direction -1 -4.48919e-011 5.44468e-026   
     length 1.05429   
     axis -3.47372e-014 -90 -90   XYZ
    dof rx
    limits (0.0 90.0)
  end
  begin
     id 30
     name rthumb
     direction -0.707107 -6.35315e-011 0.707107   
     length 1.51376   
     axis -90 -45 1.62303e-014   XYZ
    dof rx rz
    limits (-45.0 45.0)
           (-45.0 45.0)
  end
:hierarchy
  begin
    root lhipjoint rhipjoint lowerback
    lhipjoint lfemur
    lfemur ltibia
    ltibia lfoot
    lfoot ltoes
    rhipjoint rfemur
    rfemur rtibia
    rtibia rfoot
    rfoot rtoes
    lowerback upperback
    upperback thorax
    thorax lowerneck lclavicle rclavicle
    lowerneck upperneck
    upperneck head
    lclavicle lhumerus
    lhumerus lradius
    lradius lwrist
    lwrist lhand lthumb
    lhand lfingers
    rclavicle rhumerus
    rhumerus rradius
    rradius rwrist
    rwrist rhand rthumb
    rhand rfingers
  end

#!OML:ASF X:\für Bonn\!DataBase\2005_08_11_Bastian_Final\c3d\Bastian.ASF
:FULLY-SPECIFIED
:DEGREES
1
root 29.2585 17.048 -3.4133 1077.85 -87.8669 -10.372
lowerback 11.5633 0.550261 -1.55354
upperback 10.0821 0.060792 -0.209585
thorax 4.09257 -0.289181 0.630032
lowerneck -2.63905 -3.24796 -5.01187
upperneck 17.3168 -5.19955 5.06159
head 5.91589 -2.64036 2.10494
rclavicle 7.25564e-015 -4.37326e-015
rhumerus -23.1981 7.9479 -84.9711
rradius 29.1563
rwrist -5.26004
rhand -15.3966 -1.5951
rfingers 7.12502
rthumb 10.7823 -31.2984
lclavicle 7.25564e-015 -4.37326e-015
lhumerus -22.4646 13.1306 -277.205
lradius 8.50155
lwrist -361.06
lhand -9.4194 -4.96882
lfingers 7.12502
lthumb 16.5427 24.346
rfemur 3.1522 -5.84791 16.8143
rtibia 70.97
rfoot 7.39998 0.284878
rtoes -9.21531
lfemur -10.3415 1.3315 -22.4916
ltibia 32.8377
lfoot -1.46186 -4.80341
ltoes 5.41771
2
root 29.1078 17.0721 -3.39863 1075.46 -87.8111 -8.07179
lowerback 11.7473 0.455703 -1.58242
upperback 10.1903 -0.0830831 -0.213964
thorax 4.11328 -0.369625 0.652331
lowerneck -2.71183 -3.188 -4.8803
upperneck 17.3928 -5.10363 4.89739
head 5.94002 -2.59582 2.03587
rclavicle -7.85199e-015 -2.78299e-015
rhumerus -22.6203 8.30432 -84.946
rradius 28.8795
rwrist -5.22472
rhand -15.4658 -1.6889
rfingers 7.12502
rthumb 10.7154 -31.3956
lclavicle -7.85199e-015 -2.78299e-015
lhumerus -22.1181 12.9712 -277.207
lradius 9.42798
lwrist -360.956
lhand -9.57985 -5.40192
lfingers 7.12502
lthumb 16.3882 23.9257
rfemur 1.47467 -5.99441 16.6655
rtibia 72.6029
rfoot 6.43088 -0.763796
rtoes -5.97356
lfemur -9.54066 1.512 -22.5933
ltibia 32.6312
lfoot -1.88897 -5.09779
ltoes 5.15328
3
root 28.9591 17.0969 -3.38294 1073.32 -87.7481 -6.03124
lowerback 11.9118 0.35432 -1.61899
upperback 10.3267 -0.238962 -0.188768
thorax 4.17602 -0.459157 0.710771
lowerneck -2.77854 -3.13921 -4.78543
upperneck 17.4221 -5.01176 4.70845
head 5.94937 -2.55668 1.96505
rclavicle -4.17448e-015 -3.77691e-015
rhumerus -21.9494 8.71586 -84.872
rradius 28.5649
rwrist -5.2641
rhand -15.5211 -1.78688
rfingers 7.12502
rthumb 10.6622 -31.4964
lclavicle -4.17448e-015 -3.77691e-015
lhumerus -21.6873 12.8616 -277.163
lradius 10.2844
lwrist -360.863
lhand -9.84951 -5.8998
lfingers 7.12502
lthumb 16.1286 23.4491
rfemur -0.179944 -6.10334 16.5706
rtibia 73.9305
rfoot 5.06306 -1.60689
rtoes -4.62053
lfemur -8.70546 1.67716 -22.6962
ltibia 32.3625
lfoot -2.31053 -5.35692
ltoes 5.00107
4
root 28.8123 17.1267 -3.36727 1072.96 -87.6931 -5.76532
lowerback 12.071 0.249825 -1.58477
upperback 10.4861 -0.395572 -0.149603
thorax 4.26677 -0.546753 0.744178
lowerneck -2.87099 -3.06941 -4.7161
upperneck 17.4075 -4.89719 4.59984
head 5.9508 -2.50174 1.92512
rclavicle 7.05686e-015 3.57812e-015
rhumerus -21.2179 9.11049 -84.8098
rradius 28.2402
rwrist -5.23884
rhand -15.6048 -1.87934
rfingers 7.12502
rthumb 10.5813 -31.593
lclavicle 7.05686e-015 3.57812e-015
lhumerus -21.0864 10.9261 -276.409
lradius 11.2102
lwrist -358.856
lhand -10.4199 -6.18399
lfingers 7.12502
lthumb 15.5792 23.2086
rfemur -1.78374 -6.15478 16.611
rtibia 74.8939
rfoot 3.59732 -2.23442
rtoes -4.34951
lfemur -7.84586 1.82749 -22.7135
ltibia 32.0373
lfoot -2.68917 -5.59959
ltoes 5.16465
5
root 28.6694 17.1517 -3.35297 1072.72 -87.6047 -5.63212
lowerback 12.2696 0.14018 -1.57088
upperback 10.6507 -0.563508 -0.0777762
thorax 4.34345 -0.643125 0.824622
lowerneck -2.92217 -3.01239 -4.74071
upperneck 17.3294 -4.79465 4.52469
head 5.92899 -2.45629 1.9115
rclavicle -2.73329e-015 0
rhumerus -20.4701 9.54333 -84.683
rradius 27.9281
rwrist -5.24858
rhand -15.6604 -1.9772
rfingers 7.12502
rthumb 10.5278 -31.6935
lclavicle -2.73329e-015 0
lhumerus -20.5175 9.07474 -275.711
lradius 12.1948
lwrist -356.936
lhand -11.013 -6.34465
lfingers 7.12502
lthumb 15.008 23.0915
rfemur -3.33391 -6.16181 16.7216
rtibia 75.5174
rfoot 2.21509 -2.68948
rtoes -4.34787
lfemur -6.98521 1.9516 -22.7266
ltibia 31.6855
lfoot -3.02477 -5.84341
ltoes 5.04449
6
root 28.5322 17.1756 -3.33829 1071.06 -87.5174 -4.07885
lowerback 12.5138 0.0511006 -1.61397
upperback 10.8371 -0.712591 -0.0250628
thorax 4.42022 -0.734521 0.916122
lowerneck -2.99959 -2.9572 -4.75384
upperneck 17.1804 -4.69997 4.51998
head 5.89105 -2.40765 1.91752
rclavicle 6.80837e-015 -4.96962e-015
rhumerus -19.6499 9.95421 -84.5404
rradius 27.6164
rwrist -5.26206
rhand -15.6867 -2.11786
rfingers 7.12502
rthumb 10.5024 -31.8355
lclavicle 6.80837e-015 -4.96962e-015
lhumerus -19.9111 7.42749 -275.118
lradius 13.1906
lwrist -355.273
lhand -11.618 -6.42834
lfingers 7.12502
lthumb 14.4251 23.0504
rfemur -4.85754 -6.12607 16.7843
rtibia 75.8385
rfoot 1.01535 -2.89948
rtoes -4.08025
lfemur -6.12844 2.06034 -22.8029
ltibia 31.3235
lfoot -3.31082 -6.04184
ltoes 5.22768
7
root 28.3979 17.1969 -3.32386 1069.99 -87.4201 -3.08517
lowerback 12.7587 -0.0445848 -1.62705
upperback 10.9925 -0.865867 0.0377786
thorax 4.46398 -0.825161 1.00287
lowerneck -3.0193 -2.89842 -4.79624
upperneck 16.9977 -4.59799 4.50977
head 5.83285 -2.35852 1.92812
rclavicle -5.889e-015 4.77083e-015
rhumerus -18.8829 10.3898 -84.3882
rradius 27.3095
rwrist -5.21735
rhand -15.7214 -2.21872
rfingers 7.12502
rthumb 10.4689 -31.9381
lclavicle -5.889e-015 4.77083e-015
lhumerus -19.3642 5.98178 -274.647
lradius 14.205
lwrist -353.788
lhand -12.1394 -6.45927
lfingers 7.12502
lthumb 13.9227 23.0546
rfemur -6.38087 -6.03451 16.9008
rtibia 75.902
rfoot -0.12639 -2.92537
rtoes -4.05163
lfemur -5.33378 2.14287 -22.8673
ltibia 30.986
lfoot -3.65535 -6.24217
ltoes 4.83066
8
root 28.2674 17.2166 -3.30978 1069.23 -87.3381 -2.42479
lowerback 13.0487 -0.122208 -1.62542
upperback 11.1536 -0.996888 0.114958
thorax 4.48998 -0.905106 1.0958
lowerneck -3.03313 -2.85697 -4.8909
upperneck 16.8226 -4.52326 4.54292
head 5.7795 -2.32298 1.95932
rclavicle 3.03147e-015 -1.25234e-014
rhumerus -18.1072 10.8096 -84.1985
rradius 27.0264
rwrist -5.18049
rhand -15.75 -2.34962
rfingers 7.12502
rthumb 10.4413 -32.0703
lclavicle 3.03147e-015 -1.25234e-014
lhumerus -18.8492 4.47619 -274.197
lradius 15.2744
lwrist -352.233
lhand -12.6427 -6.45091
lfingers 7.12502
lthumb 13.4376 23.0957
rfemur -7.85433 -5.90511 17.0409
rtibia 75.746
rfoot -1.11957 -2.82505
rtoes -3.92337
lfemur -4.55582 2.21123 -22.9092
ltibia 30.6778
lfoot -4.00309 -6.41406
ltoes 4.71369
9
root 28.1407 17.2326 -3.29611 1067.85 -87.2384 -1.09587
lowerback 13.3555 -0.193817 -1.66872
upperback 11.2676 -1.12057 0.200071
thorax 4.45762 -0.982132 1.22359
lowerneck -2.96452 -2.81859 -4.96159
upperneck 16.6461 -4.4474 4.49558
head 5.7094 -2.29248 1.9624
rclavicle 3.2054e-015 6.80837e-015
rhumerus -17.4144 11.3251 -84.0059
rradius 26.7736
rwrist -5.26803
rhand -15.833 -2.44888
rfingers 7.12502
rthumb 10.3612 -32.1736
lclavicle 3.2054e-015 6.80837e-015
lhumerus -18.4515 2.97997 -273.783
lradius 16.4168
lwrist -350.625
lhand -13.0723 -6.52079
lfingers 7.12502
lthumb 13.0235 23.0527
rfemur -9.3354 -5.75503 17.1409
rtibia 75.3939
rfoot -1.99635 -2.56484
rtoes -4.3861
lfemur -3.85974 2.30673 -22.99
ltibia 30.4256
lfoot -4.35512 -6.622
ltoes 4.1793
10
root 28.0145 17.2441 -3.28419 1066.66 -87.1517 0.0135504
lowerback 13.6953 -0.234707 -1.6799
upperback 11.3787 -1.20148 0.276513
thorax 4.40308 -1.0353 1.32195
lowerneck -2.88816 -2.81103 -5.02332
upperneck 16.5122 -4.42212 4.47031
head 5.65412 -2.2851 1.96773
rclavicle 5.34234e-016 7.0817e-015
rhumerus -16.7582 11.7801 -83.8017
rradius 26.5468
rwrist -5.39443
rhand -15.9144 -2.56477
rfingers 7.12502
rthumb 10.2827 -32.2934
lclavicle 5.34234e-016 7.0817e-015
lhumerus -18.0512 1.58174 -273.459
lradius 17.5353
lwrist -349.219
lhand -13.4548 -6.6788
lfingers 7.12502
lthumb 12.6548 22.9178
rfemur -10.7288 -5.52078 17.2572
rtibia 74.8467
rfoot -2.80711 -2.19147
rtoes -4.7516
lfemur -3.17729 2.38981 -23.0512
ltibia 30.2303
lfoot -4.75057 -6.81938
ltoes 4.03979
11
root 27.8916 17.2529 -3.27259 1065.86 -87.0152 0.731974
lowerback 14.1052 -0.287828 -1.67017
upperback 11.448 -1.29519 0.368503
thorax 4.26697 -1.09208 1.42931
lowerneck -2.78249 -2.81451 -5.04516
upperneck 16.4443 -4.40352 4.32474
head 5.61175 -2.28773 1.92845
rclavicle 1.07997e-014 -1.31408e-014
rhumerus -16.1434 12.124 -83.5686
rradius 26.3328
rwrist -5.41412
rhand -15.9093 -2.65419
rfingers 7.12502
rthumb 10.2877 -32.3826
lclavicle 1.07997e-014 -1.31408e-014
lhumerus -17.7431 0.244125 -273.165
lradius 18.7199
lwrist -347.829
lhand -13.7126 -6.90355
lfingers 7.12502
lthumb 12.4063 22.7083
rfemur -12.0506 -5.30862 17.3754
rtibia 74.1084
rfoot -3.55283 -1.80648
rtoes -5.06473
lfemur -2.55029 2.43752 -23.1062
ltibia 30.108
lfoot -5.18953 -7.01283
ltoes 3.22262
12
root 27.7678 17.2579 -3.26165 1064.67 -86.8968 1.83201
lowerback 14.4923 -0.310212 -1.67274
upperback 11.5443 -1.35103 0.458507
thorax 4.17237 -1.13211 1.53755
lowerneck -2.73156 -2.83112 -5.02131
upperneck 16.4246 -4.40142 4.14649
head 5.59302 -2.297 1.86942
rclavicle 1.29831e-014 -1.54058e-015
rhumerus -15.5048 12.3401 -83.3124
rradius 26.1235
rwrist -5.37761
rhand -15.9595 -2.73307
rfingers 7.12502
rthumb 10.2392 -32.4639
lclavicle 1.29831e-014 -1.54058e-015
lhumerus -17.4334 -1.26998 -272.863
lradius 19.9551
lwrist -346.249
lhand -14.0104 -7.15348
lfingers 7.12502
lthumb 12.1191 22.4755
rfemur -13.2862 -5.06269 17.4846
rtibia 73.1855
rfoot -4.21834 -1.52745
rtoes -5.53819
lfemur -1.93592 2.47695 -23.1797
ltibia 30.0342
lfoot -5.63035 -7.20954
ltoes 2.88681
